<svg xmlns="http://www.w3.org/2000/svg" viewBox="0 0 695 1000">
	<path transform="translate(0, 900) scale(1,-1)" d="M49 923L93 967L121 967L49 895L49 923ZM49 733L283 967L311 967L49 705L49 733ZM49 543L473 967L501 967L49 515L49 543ZM49 353L646 950L646 922L49 325L49 353ZM49 163L646 760L646 732L49 135L49 163ZM49-27L646 570L646 542L49-55L49-27ZM49-217L646 380L646 352L49-245L49-217ZM196-260L646 190L646 162L224-260L196-260ZM386-260L646 0L646-28L414-260L386-260ZM576-260L646-190L646-218L604-260L576-260Z"></path>
</svg>