<svg xmlns="http://www.w3.org/2000/svg" viewBox="0 0 1389 1000">
	<path transform="translate(0, 900) scale(1,-1)" d="M49 575L135 661L163 661L49 547L49 575ZM49 385L325 661L353 661L49 357L49 385ZM49 195L515 661L543 661L49 167L49 195ZM91 47L705 661L733 661L119 47L91 47ZM281 47L895 661L923 661L309 47L281 47ZM471 47L1085 661L1113 661L499 47L471 47ZM661 47L1275 661L1303 661L689 47L661 47ZM851 47L1340 536L1340 508L879 47L851 47ZM1041 47L1340 346L1340 318L1069 47L1041 47ZM1231 47L1340 156L1340 128L1259 47L1231 47Z"></path>
</svg>