<svg xmlns="http://www.w3.org/2000/svg" viewBox="0 0 1389 1000">
	<path transform="translate(0, 900) scale(1,-1)" d="M49 864L152 967L180 967L49 836L49 864ZM49 674L342 967L370 967L49 646L49 674ZM49 484L532 967L560 967L49 456L49 484ZM49 294L722 967L750 967L49 266L49 294ZM49 104L912 967L940 967L49 76L49 104ZM49-86L1102 967L1130 967L49-114L49-86ZM65-260L1292 967L1320 967L93-260L65-260ZM255-260L1340 825L1340 797L283-260L255-260ZM445-260L1340 635L1340 607L473-260L445-260ZM635-260L1340 445L1340 417L663-260L635-260ZM825-260L1340 255L1340 227L853-260L825-260ZM1015-260L1340 65L1340 37L1043-260L1015-260ZM1205-260L1340-125L1340-153L1233-260L1205-260Z"></path>
</svg>