<svg xmlns="http://www.w3.org/2000/svg" viewBox="0 0 64 64">
	<path transform="translate(0, 56) scale(1,-1)" d="M0 52L0-4L64-4L64 52ZM8 48L16 48L16 44L20 44L20 32L16 32L16 28L8 28L8 32L16 32L16 44L8 44L8 32L4 32L4 44L8 44ZM32 48L36 48L36 32L40 32L40 28L28 28L28 32L32 32L32 40L28 40L28 44L32 44ZM44 48L56 48L56 44L60 44L60 32L56 32L56 28L44 28L44 32L56 32L56 36L48 36L48 40L56 40L56 44L44 44ZM4 20L8 20L8 12L16 12L16 20L20 20L20 0L16 0L16 8L4 8ZM24 20L36 20L36 16L40 16L40 4L36 4L36 0L24 0L24 4L36 4L36 8L28 8L28 12L36 12L36 16L24 16ZM44 20L56 20L56 16L48 16L48 4L56 4L56 16L60 16L60 4L56 4L56 0L44 0Z"></path>
</svg>