<svg xmlns="http://www.w3.org/2000/svg" viewBox="0 0 64 64">
	<path transform="translate(0, 56) scale(1,-1)" d="M0 56L0 52L4 52L4 56ZM8 56L8 52L12 52L12 56ZM16 56L16 52L20 52L20 56ZM24 56L24 52L28 52L28 56ZM32 56L32 52L36 52L36 56ZM40 56L40 52L44 52L44 56ZM48 56L48 52L52 52L52 56ZM56 56L56 52L60 52L60 48L64 48L64 52L60 52L60 56ZM0 48L0 44L4 44L4 48ZM60 44L60 40L64 40L64 44ZM0 40L0 36L4 36L4 40ZM12 40L12 36L16 36L16 32L20 32L20 28L24 28L24 24L12 24L12 20L24 20L24 16L20 16L20 12L16 12L16 8L12 8L12 4L16 4L16 8L20 8L20 12L24 12L24 16L28 16L28 20L32 20L32 16L36 16L36 12L40 12L40 8L44 8L44 4L48 4L48 8L44 8L44 12L40 12L40 16L36 16L36 20L52 20L52 24L36 24L36 28L40 28L40 32L44 32L44 36L48 36L48 40L44 40L44 36L40 36L40 32L36 32L36 28L32 28L32 24L28 24L28 28L24 28L24 32L20 32L20 36L16 36L16 40ZM60 36L60 32L64 32L64 36ZM0 32L0 28L4 28L4 32ZM60 28L60 24L64 24L64 28ZM0 24L0 20L4 20L4 24ZM60 20L60 16L64 16L64 20ZM0 16L0 12L4 12L4 16ZM60 12L60 8L64 8L64 12ZM0 8L0 4L4 4L4 8ZM60 4L60 0L64 0L64 4ZM0 0L0-4L4-4L4-8L8-8L8-4L4-4L4 0ZM12-4L12-8L16-8L16-4ZM20-4L20-8L24-8L24-4ZM28-4L28-8L32-8L32-4ZM36-4L36-8L40-8L40-4ZM44-4L44-8L48-8L48-4ZM52-4L52-8L56-8L56-4ZM60-4L60-8L64-8L64-4Z"></path>
</svg>